<svg width="331" height="273" viewBox="0 0 331 273" fill="none" xmlns="http://www.w3.org/2000/svg">
  <path
    d="M290.693 272.109C315.402 243.281 330.228 205.806 330.228 165.036C330.228 74.0242 256.512 0.308777 165.5 0.308777C131.5 0.308777 99.9127 10.5971 73.6816 28.2319L130.908 38.4953L198.858 127.86L225.214 125.389L233.039 131.154L227.685 152.569L227.273 184.279L205.401 231.24L264.162 272.109H290.693Z"
    fill="#bcbcbc"
  />
  <path
    d="M114.599 272.109H96.7391L100.845 173.572L137.085 180.573L166.308 232.637L132.966 258.04L114.599 272.109Z"
    fill="#BCBCBC"
  />
  <path d="M177.502 244.404L142.85 270.806H233.45L195.497 244.404H177.502Z" fill="#bcbcbc" />
  <path
    d="M53.074 173.572C53.074 173.572 12.6975 170.524 0.815918 168.826C1.70377 208.126 16.3662 244.177 40.3077 272.109H73.2247L67.4876 211.459L53.074 173.572Z"
    fill="#BCBCBC"
  />
</svg>
