<svg width="211" height="191" viewBox="0 0 211 191" fill="none" xmlns="http://www.w3.org/2000/svg">
  <g clip-path="url(#clip0_1039_36112)">
    <path d="M127.977 129.395C127.69 129.395 127.595 129.395 127.403 129.474L127.977 129.395Z" fill="black" />
    <path d="M127.977 129.395C127.69 129.395 127.595 129.395 127.403 129.474L127.977 129.395Z" fill="black" />
    <path
      d="M107 69V46.2016C107 26.8289 121.625 11 139.5 11C148.39 11 156.515 14.8982 162.441 21.277C168.368 27.6558 172 36.3972 172 46.0835V68.8819"
      fill="white"
    />
    <path
      d="M107 69V46.2016C107 26.8289 121.625 11 139.5 11C148.39 11 156.515 14.8982 162.441 21.277C168.368 27.6558 172 36.3971 172 46.0835V68.8819"
      stroke="black"
      stroke-width="2"
      stroke-miterlimit="10"
    />
    <path d="M121 131.623L128.8 106.493L153.76 106L160 140H121V131.623Z" fill="white" stroke="black" stroke-width="2" />
    <path
      d="M171.784 66.4417V84.1224C171.784 97.1253 157.15 107.75 139.264 107.75C121.377 107.75 106.743 97.1253 106.743 84.1224V66.4417"
      fill="white"
    />
    <path
      d="M171.784 66.4417V84.1224C171.784 97.1253 157.15 107.75 139.264 107.75C121.377 107.75 106.743 97.1253 106.743 84.1224V66.4417"
      stroke="black"
      stroke-width="2"
      stroke-miterlimit="10"
    />
    <path
      d="M112.961 20.0594C120.326 36.3923 144.429 33.9344 160.785 30.4458C164.707 29.5737 168.724 28.6222 172.263 26.9572C175.802 25.2922 178.767 22.5965 179.915 19.3458C181.158 15.6986 179.724 11.655 177.237 8.4836C174.941 5.55002 171.593 2.45786 168.054 0.554999C166.524 3.80573 161.072 4.04358 157.342 4.04358C152.081 4.04358 147.299 2.37858 142.421 1.18929C137.447 -3.39746e-06 132.091 -0.237861 127.117 0.872143C117.074 2.85429 109.039 11.3379 112.961 20.0594Z"
      fill="black"
    />
    <path
      d="M106.456 63.3495H102.63C100.526 63.3495 98.6131 64.0631 97.1784 65.1731C95.8393 66.3624 94.9785 67.9481 94.9785 69.6924C94.9785 73.181 98.4219 76.0352 102.63 76.0352H106.456"
      fill="white"
    />
    <path
      d="M106.456 63.3495H102.63C100.526 63.3495 98.6131 64.0631 97.1784 65.1731C95.8393 66.3624 94.9785 67.9481 94.9785 69.6924C94.9785 73.181 98.4219 76.0352 102.63 76.0352H106.456"
      stroke="black"
      stroke-width="2"
      stroke-miterlimit="10"
    />
    <path
      d="M173.889 63.3495H175.802C180.01 63.3495 183.453 66.2038 183.453 69.6924C183.453 71.4367 182.593 73.0224 181.158 74.2117C179.819 75.3217 177.906 76.0352 175.802 76.0352H171.976"
      stroke="black"
      stroke-width="2"
      stroke-miterlimit="10"
    />
    <path
      d="M119.943 71.9125C129.081 71.9125 136.49 65.7714 136.49 58.196C136.49 50.6206 129.081 44.4795 119.943 44.4795C110.804 44.4795 103.396 50.6206 103.396 58.196C103.396 65.7714 110.804 71.9125 119.943 71.9125Z"
      fill="white"
      stroke="black"
      stroke-width="2"
      stroke-miterlimit="10"
    />
    <path
      d="M158.49 71.9125C167.628 71.9125 175.037 65.7714 175.037 58.196C175.037 50.6206 167.628 44.4795 158.49 44.4795C149.351 44.4795 141.942 50.6206 141.942 58.196C141.942 65.7714 149.351 71.9125 158.49 71.9125Z"
      fill="white"
      stroke="black"
      stroke-width="2"
      stroke-miterlimit="10"
    />
    <path d="M136.395 57.7996H142.133" stroke="black" stroke-width="4" stroke-miterlimit="10" />
    <path
      d="M119.943 61.3674C122.056 61.3674 123.769 59.9475 123.769 58.196C123.769 56.4444 122.056 55.0245 119.943 55.0245C117.83 55.0245 116.117 56.4444 116.117 58.196C116.117 59.9475 117.83 61.3674 119.943 61.3674Z"
      fill="black"
    />
    <path
      d="M158.489 61.3674C160.602 61.3674 162.315 59.9475 162.315 58.196C162.315 56.4444 160.602 55.0245 158.489 55.0245C156.376 55.0245 154.663 56.4444 154.663 58.196C154.663 59.9475 156.376 61.3674 158.489 61.3674Z"
      fill="black"
    />
    <path
      d="M106.553 67.7896V71.5953H103.492C102.248 71.5953 101.196 70.7231 101.196 69.6924C101.196 69.1374 101.483 68.6617 101.866 68.3446C102.248 68.0274 102.822 67.7896 103.492 67.7896H106.553Z"
      fill="black"
    />
    <path
      d="M171.976 71.5953V67.7896H175.036C176.28 67.7896 177.332 68.6617 177.332 69.6924C177.332 70.2474 177.045 70.7231 176.662 71.0403C176.28 71.3574 175.706 71.5953 175.036 71.5953H171.976Z"
      fill="black"
    />
    <path
      d="M139.264 71.2781C139.264 71.2781 134.482 77.621 142.134 76.0352"
      stroke="black"
      stroke-width="2"
      stroke-miterlimit="10"
      stroke-linecap="round"
    />
    <path
      d="M130.655 89.5931C130.655 89.5931 138.307 97.4425 148.828 89.5931"
      stroke="black"
      stroke-width="2"
      stroke-miterlimit="10"
      stroke-linecap="round"
    />
    <path
      d="M112.482 41.9423C112.482 41.9423 117.743 37.5816 126.83 41.1495"
      stroke="black"
      stroke-width="3"
      stroke-miterlimit="10"
      stroke-linecap="round"
    />
    <path
      d="M166.045 41.9423C166.045 41.9423 160.785 37.5816 151.698 41.1495"
      stroke="black"
      stroke-width="3"
      stroke-miterlimit="10"
      stroke-linecap="round"
    />
    <path
      d="M106.552 32.9037C106.552 32.9037 93.3523 24.4201 99.0912 14.1129C104.83 3.80569 123.003 9.35571 123.003 9.35571C123.003 9.35571 130.273 35.0444 106.552 32.9037Z"
      fill="black"
    />
    <path
      d="M40.9373 96.2538C39.7895 93.1616 38.1635 91.6552 37.3027 87.1359C35.4854 78.0973 36.1549 69.4551 31.6594 69.7723C29.8421 69.9308 29.2682 71.5166 29.3639 72.3887L30.7986 86.6602C30.2247 88.3252 29.1726 87.6909 29.1726 87.6909C29.1726 87.6909 25.4423 75.0052 24.9641 72.7059C24.4858 70.4858 23.1467 69.2173 21.3294 69.3758C18.173 69.6137 19.4165 72.7851 19.7034 73.9744L23.0511 89.3559C23.338 90.8624 21.4251 90.3866 21.4251 90.3866L13.9645 75.0052C13.1037 73.3401 11.4777 73.7366 11.4777 73.7366C8.51256 74.2916 9.66034 76.5116 9.66034 76.5116L16.0688 92.8445C16.0688 92.9238 16.0688 93.0031 16.0688 93.0824C16.1644 93.9545 14.8253 94.4302 14.2515 93.6374C12.2428 91.1002 8.32126 87.0566 5.06922 85.4709C3.4432 84.678 2.29542 84.8366 1.62588 85.233C0.956347 85.6295 0.860699 86.3431 1.33894 86.8981L13.295 101.249C16.0688 116.472 27.2596 118.295 27.2596 118.295L33.955 140.02L43.8068 174.271L45.0502 178.632C46.198 182.834 50.7891 185.847 55.9541 185.847H61.2147C64.945 185.847 78.1477 177.126 76.9999 174.271L42.5633 119.881L41.5112 114.648C43.8068 112.507 45.3371 107.988 46.1023 104.737C46.5806 102.993 46.7718 101.17 46.5806 99.4252C46.198 95.0645 49.7369 87.2152 49.7369 87.2152C49.45 85.7088 46.0067 86.9773 46.0067 86.9773C42.1807 88.0873 41.2243 93.1616 40.9373 95.9367C40.8417 97.1259 40.1721 98.1567 39.2156 98.9495C33.4767 103.627 32.9985 108.86 32.9985 108.86"
      fill="white"
    />
    <path
      d="M40.9373 96.2538C39.7895 93.1617 38.1635 91.6552 37.3027 87.1359C35.4854 78.0973 36.1549 69.4551 31.6594 69.7723C29.8421 69.9308 29.2682 71.5166 29.3639 72.3887L30.7986 86.6602C30.2247 88.3252 29.1726 87.6909 29.1726 87.6909C29.1726 87.6909 25.4423 75.0052 24.9641 72.7059C24.4858 70.4858 23.1467 69.2173 21.3294 69.3758C18.173 69.6137 19.4165 72.7851 19.7034 73.9744L23.0511 89.3559C23.338 90.8624 21.4251 90.3866 21.4251 90.3866L13.9645 75.0052C13.1037 73.3401 11.4777 73.7366 11.4777 73.7366C8.51256 74.2916 9.66034 76.5116 9.66034 76.5116L16.0688 92.8445C16.0688 92.9238 16.0688 93.0031 16.0688 93.0824C16.1644 93.9545 14.8253 94.4302 14.2515 93.6374C12.2428 91.1002 8.32126 87.0566 5.06922 85.4709C3.4432 84.678 2.29542 84.8366 1.62588 85.233C0.956347 85.6295 0.860699 86.3431 1.33894 86.8981L13.295 101.249C16.0688 116.472 27.2596 118.295 27.2596 118.295L33.955 140.02L43.8068 174.271L45.0502 178.632C46.198 182.834 50.7891 185.847 55.9541 185.847H61.2147C64.945 185.847 78.1477 177.126 76.9999 174.271L42.5633 119.881L41.5112 114.648C43.8068 112.507 45.3371 107.988 46.1023 104.737C46.5806 102.993 46.7718 101.17 46.5806 99.4252C46.198 95.0645 49.7369 87.2152 49.7369 87.2152C49.45 85.7088 46.0067 86.9773 46.0067 86.9773C42.1807 88.0873 41.2243 93.1616 40.9373 95.9367C40.8417 97.1259 40.1721 98.1567 39.2156 98.9495C33.4767 103.627 32.9985 108.86 32.9985 108.86"
      stroke="black"
      stroke-width="2"
      stroke-miterlimit="10"
    />
    <path
      d="M24.8689 72.7845C24.3906 70.5645 23.5298 68.8995 21.2342 69.4545C18.1735 70.1681 19.3213 72.8638 19.6082 74.0531"
      stroke="black"
      stroke-width="2"
      stroke-miterlimit="10"
    />
    <path
      d="M211 190.207V191H190.149L185.749 174.826V191H95.4574V179.504C95.4574 176.729 95.3617 177.601 95.4574 174.826C93.4487 176.174 94.0829 173.636 91.5004 174.826L68.7715 185.926C68.6759 186.005 68.5802 186.005 68.4846 186.084C67.6237 186.481 66.6672 186.719 65.6151 186.719L61.458 186.849C61.458 186.849 65.9021 185.45 66.9542 181.961L65.6151 157.5C75.8495 150.444 79.5621 134.707 111.317 130.505C112.656 130.267 114.091 130.029 115.621 129.87C117.056 129.712 118.491 129.553 120.117 129.474L121.169 129.395V129.553L120.595 129.633C120.786 129.633 120.882 129.633 121.073 129.553H121.169C121.36 129.553 121.552 129.553 121.743 129.474H121.839L122.795 129.395V132.408C122.795 132.804 122.986 133.28 123.465 133.676C124.899 135.024 135.151 136.055 139.073 136.293C139.742 136.372 140.412 136.372 141.082 136.372C141.177 136.372 141.273 136.372 141.273 136.372H141.368C145.194 136.293 153.733 135.421 155.551 134.152C156.125 133.756 156.699 133.201 156.699 132.408V129.633L157.655 129.791H157.846C158.133 129.791 158.325 129.87 158.611 129.87V129.633L159.855 129.791C194.958 133.359 211 143 211 190.207Z"
      fill="black"
    />
    <path d="M68.6756 185.846L68.3887 186.005C68.4843 186.005 68.58 185.926 68.6756 185.846Z" fill="black" />
  </g>
  <defs>
    <clipPath id="clip0_1039_36112">
      <rect width="211" height="191" fill="white" />
    </clipPath>
  </defs>
</svg>
